{"title":"Shrek: The Whole Story (English, Russian + sub)","uid":6778732,"size":8393180204,"categoryP":"video","categoryS":"movies","magnet":"?xt=urn:btih:cac2e7091be9eb74cdbea17c5c3daf3db5aa5e15&amp;dn=Shrek%3A+The+Whole+Story+%28English%2C+Russian+%2B+sub%29&amp;tr=udp%3A%2F%2Ftracker.openbittorrent.com%3A80&amp;tr=udp%3A%2F%2Fopen.demonii.com%3A1337&amp;tr=udp%3A%2F%2Ftracker.coppersurfer.tk%3A6969&amp;tr=udp%3A%2F%2Fexodus.desync.com%3A6969","seeders":0,"leechers":0,"uploader":"basekts","files":4,"time":1319819666,"description":"Format                           : AVI\nFormat/Info                      : Audio Video Interleave\nFormat profile                   : OpenDML\nFile size                        : 1.96 GiB\nDuration                         : 1h 32mn\nOverall bit rate                 : 3 020 Kbps\nWriting application              : AVI-Mux GUI 1.17.8.3, Feb 16 201019:42:50\n\nVideo\nID                               : 0\nFormat                           : MPEG-4 Visual\nFormat profile                   : Advanced Simple@L5\nFormat settings, BVOP            : Yes\nFormat settings, QPel            : No\nFormat settings, GMC             : No warppoints\nFormat settings, Matrix          : Default (MPEG)\nCodec ID                         : XVID\nCodec ID/Hint                    : XviD\nDuration                         : 1h 32mn\nBit rate                         : 2 117 Kbps\nWidth                            : 720 pixels\nHeight                           : 400 pixels\nDisplay aspect ratio             : 16:9\nFrame rate                       : 23.976 fps\nResolution                       : 8 bits\nColorimetry                      : 4:2:0\nScan type                        : Progressive\nBits/(Pixel*Frame)               : 0.307\nStream size                      : 1.37 GiB (70%)\nWriting library                  : XviD 1.2.1 (UTC 2008-12-04)\n\nAudio #1\nID                               : 1\nFormat                           : AC-3\nFormat/Info                      : Audio Coding 3\nCodec ID                         : 2000\nDuration                         : 1h 32mn\nBit rate mode                    : Constant\nBit rate                         : 448 Kbps\nChannel(s)                       : 6 channels\nChannel positions                : Front: L C R, Side: L R, LFE\nSampling rate                    : 48.0 KHz\nStream size                      : 297 MiB (15%)\nAlignment                        : Aligned on interleaves\nInterleave, duration             : 64 ms (1.53 video frames)\nInterleave, preload duration     : 192 ms\nTitle                            : Shrek.Tretij.Rus.Dub\n\nAudio #2\nID                               : 2\nFormat                           : AC-3\nFormat/Info                      : Audio Coding 3\nCodec ID                         : 2000\nDuration                         : 1h 32mn\nBit rate mode                    : Constant\nBit rate                         : 448 Kbps\nChannel(s)                       : 6 channels\nChannel positions                : Front: L C R, Side: L R, LFE\nSampling rate                    : 48.0 KHz\nStream size                      : 297 MiB (15%)\nAlignment                        : Aligned on interleaves\nInterleave, duration             : 64 ms (1.53 video frames)\nInterleave, preload duration     : 192 ms\nTitle                            : Shrek.Tretij.Eng\n\nText #1\nID                               : 3\nStream size                      : 98.9 KiB (0%)\nTitle                            : Shrek.Tretij.Rus\n\nText #2\nID                               : 4\nStream size                      : 79.1 KiB (0%)\nTitle                            : Shrek.Tretij.Eng\n","torrent":{"xt":"urn:btih:cac2e7091be9eb74cdbea17c5c3daf3db5aa5e15","amp;dn":"Shrek%3A+The+Whole+Story+%28English%2C+Russian+%2B+sub%29","amp;tr":["udp%3A%2F%2Ftracker.openbittorrent.com%3A80","udp%3A%2F%2Fopen.demonii.com%3A1337","udp%3A%2F%2Ftracker.coppersurfer.tk%3A6969","udp%3A%2F%2Fexodus.desync.com%3A6969"],"infoHash":"cac2e7091be9eb74cdbea17c5c3daf3db5aa5e15","infoHashBuffer":{"type":"Buffer","data":[202,194,231,9,27,233,235,116,205,190,161,124,92,61,175,61,181,170,94,21]},"announce":[],"urlList":[]}}